<?xml version="1.0" encoding="UTF-8"?>
<!-- Generator: Adobe Illustrator 27.0.1, SVG Export Plug-In . SVG Version: 6.00 Build 0)  -->
<svg version="1.1" id="Layer_1" xmlns="http://www.w3.org/2000/svg" xmlns:xlink="http://www.w3.org/1999/xlink" x="0px" y="0px" viewBox="0 0 40 40" style="enable-background:new 0 0 40 40;" xml:space="preserve">
<style type="text/css">
	.st0{opacity:2.000000e-02;}
	.st1{fill-rule:evenodd;clip-rule:evenodd;fill:#FFFFFF;}
</style>
<g id="Screens" class="st0">
	<g id="Carrito-Selección-V2-No-Options-Dinero-X" transform="translate(-108.000000, -16.000000)">
		<g id="Full-Logo" transform="translate(108.440000, 16.000000)">
			<g id="Group-63">
				<path id="Fill-57" class="st1" d="M7.9,20c0.6,0,1.3,0,2-0.1C9,14.5,9.5,9,11.2,4.8c1-2.3,2.3-3.5,3.7-4.2      C7.9,2.4,2.4,7.9,0.6,14.9C0.7,16.8,1.7,20,7.9,20"/>
				<path id="Fill-58" class="st1" d="M31.3,6.4c0,6.3-8.2,13.6-16.9,16.2c0.6,2.1,1.5,4.1,2.6,6c0.4,0.8,0.8,1.4,1.3,2.1      c8.5-2,15.1-7.5,18-14.1c1.4-3.3,0.9-5.8,0.5-6.8c-1.6-2.7-3.8-5-6.5-6.7C30.7,3.8,31.3,5,31.3,6.4"/>
				<path id="Fill-59" class="st1" d="M13.6,19.1c7.4-2.3,14.9-8.5,14.9-13.6c0-2.1-1.3-3.6-2.2-4.4C24.2,0.4,22,0,19.7,0      c-0.1,0-0.3,0-0.4,0c-1,0.2-3.1,0.8-4.4,3C13,6.4,12.3,12.6,13.6,19.1"/>
				<path id="Fill-60" class="st1" d="M39.1,15.8C39,17,38.6,18.4,37.9,20c-2.9,6-9,11.8-17.1,13.9c2.3,2.4,4.5,3.7,6.2,4.3      c7.4-2.9,12.6-10,12.6-18.4C39.5,18.4,39.3,17.1,39.1,15.8"/>
				<path id="Fill-61" class="st1" d="M11.1,31.5c1.1,0,2.1-0.1,3.1-0.2c-1.6-2.4-2.8-5.2-3.5-8c-0.8,0.1-1.6,0.1-2.4,0.1      c-5.2,0-7.4-2-8.3-3.8c0,0,0,0,0,0.1c0,3.1,0.7,6.1,2,8.7C3.6,30.5,7.4,31.5,11.1,31.5"/>
				<path id="Fill-62" class="st1" d="M21,38.1c-1.6-1-3-2.2-4.3-3.5c-0.9,0.1-1.9,0.1-2.8,0.1c-4.7,0-7.6-1.1-9.3-2.4      c3.6,4.4,9.1,7.1,15.2,7.1c1.1,0,2.2-0.1,3.3-0.3C22.4,38.9,21.7,38.6,21,38.1"/>
			</g>
		</g>
	</g>
</g>
</svg>